<?xml version="1.0" ?><svg id="Layer_5" style="enable-background:new 0 0 62 62;" version="1.1" viewBox="0 0 62 62" xml:space="preserve" xmlns="http://www.w3.org/2000/svg" xmlns:xlink="http://www.w3.org/1999/xlink"><g><g><g><path d="M33,1v53c0,1.66,1.34,3,3,3c0.83,0,1.58-0.34,2.12-0.88C38.66,55.58,39,54.83,39,54v-3h16V1H33z" style="fill:#E6E9ED;"/></g><g><path d="M61,51v3c0,1.66-1.34,3-3,3H36c0.83,0,1.58-0.34,2.12-0.88C38.66,55.58,39,54.83,39,54v-3h16H61z" style="fill:#FFEAA7;"/></g><g><rect height="6" style="fill:#FF826E;" width="14" x="37" y="5"/></g><g><rect height="14" style="fill:#5CD6B3;" width="6" x="1" y="38"/></g><g><path d="M25,55v4c0,1.1-0.9,2-2,2h-4c-1.1,0-2-0.9-2-2v-4V39h6c-0.55,0-1.05,0.22-1.41,0.59     C21.22,39.95,21,40.45,21,41c0,1.1,0.9,2,2,2c-0.55,0-1.05,0.22-1.41,0.59C21.22,43.95,21,44.45,21,45c0,1.1,0.9,2,2,2     c-0.55,0-1.05,0.22-1.41,0.59C21.22,47.95,21,48.45,21,49c0,1.1,0.9,2,2,2c-0.55,0-1.05,0.22-1.41,0.59     C21.22,51.95,21,52.45,21,53c0,1.1,0.9,2,2,2H25z" style="fill:#969FAA;"/></g><g><path d="M27,39c1.1,0,2,0.9,2,2c0,0.55-0.22,1.05-0.59,1.41C28.05,42.78,27.55,43,27,43h-4     c-1.1,0-2-0.9-2-2c0-0.55,0.22-1.05,0.59-1.41C21.95,39.22,22.45,39,23,39H27z" style="fill:#F0D0B4;"/></g><g><path d="M27,43c1.1,0,2,0.9,2,2c0,0.55-0.22,1.05-0.59,1.41C28.05,46.78,27.55,47,27,47h-4     c-1.1,0-2-0.9-2-2c0-0.55,0.22-1.05,0.59-1.41C21.95,43.22,22.45,43,23,43H27z" style="fill:#F0D0B4;"/></g><g><path d="M27,47c1.1,0,2,0.9,2,2c0,0.55-0.22,1.05-0.59,1.41C28.05,50.78,27.55,51,27,51h-4     c-1.1,0-2-0.9-2-2c0-0.55,0.22-1.05,0.59-1.41C21.95,47.22,22.45,47,23,47H27z" style="fill:#F0D0B4;"/></g><g><path d="M27,51c1.1,0,2,0.9,2,2c0,0.55-0.22,1.05-0.59,1.41C28.05,54.78,27.55,55,27,55h-2h-2     c-1.1,0-2-0.9-2-2c0-0.55,0.22-1.05,0.59-1.41C21.95,51.22,22.45,51,23,51H27z" style="fill:#F0D0B4;"/></g><g><path d="M17,39v16h-2.78c-1.45,0-2.88-0.39-4.12-1.14L7,52V38l3.1-1.86c1.24-0.75,2.67-1.14,4.12-1.14H21     h4c0.55,0,1,0.45,1,1c0,1.66-1.34,3-3,3H17z" style="fill:#F0D0B4;"/></g><g><path d="M33,13.79c1.27,2.11,2,4.58,2,7.21s-0.73,5.1-2,7.21C30.55,32.28,26.09,35,21,35     c-7.73,0-14-6.27-14-14S13.27,7,21,7C26.09,7,30.55,9.72,33,13.79z" style="fill:#AAB2BD;"/></g><g><circle cx="21" cy="21" r="10" style="fill:#FCD770;"/></g></g><g><path d="M20,18h2c0.551,0,1,0.448,1,1h2c0-1.654-1.346-3-3-3v-2h-2v2c-1.654,0-3,1.346-3,3s1.346,3,3,3h2c0.551,0,1,0.448,1,1    s-0.449,1-1,1h-2c-0.551,0-1-0.448-1-1h-2c0,1.654,1.346,3,3,3v2h2v-2c1.654,0,3-1.346,3-3s-1.346-3-3-3h-2c-0.551,0-1-0.448-1-1    S19.449,18,20,18z"/><path d="M21,10c-6.065,0-11,4.935-11,11s4.935,11,11,11s11-4.935,11-11S27.065,10,21,10z M21,30c-4.962,0-9-4.037-9-9s4.038-9,9-9    s9,4.037,9,9S25.962,30,21,30z"/><path d="M56,50V0H32v10.836C29.258,7.871,25.348,6,21,6C12.729,6,6,12.729,6,21c0,5.586,3.075,10.459,7.615,13.041    c-1.42,0.095-2.803,0.506-4.03,1.242L6.723,37H0v16h6.723l2.863,1.718c1.399,0.839,3,1.282,4.63,1.282H16v3c0,1.654,1.346,3,3,3h4    c1.654,0,3-1.346,3-3v-3h1c1.654,0,3-1.346,3-3c0-0.771-0.301-1.468-0.78-2c0.48-0.532,0.78-1.229,0.78-2s-0.301-1.468-0.78-2    c0.48-0.532,0.78-1.229,0.78-2s-0.301-1.468-0.78-2c0.48-0.532,0.78-1.229,0.78-2c0-1.654-1.346-3-3-3h-0.556    C26.788,37.409,27,36.732,27,36c0-0.413-0.126-0.797-0.342-1.117c2.048-0.838,3.862-2.12,5.342-3.72V54c0,2.206,1.794,4,4,4h22    c2.206,0,4-1.794,4-4v-4H56z M2,39h4v12H2V39z M24,59c0,0.552-0.449,1-1,1h-4c-0.551,0-1-0.448-1-1V40h2.184    C20.072,40.314,20,40.648,20,41c0,0.771,0.301,1.468,0.78,2c-0.48,0.532-0.78,1.229-0.78,2s0.301,1.468,0.78,2    c-0.48,0.532-0.78,1.229-0.78,2s0.301,1.468,0.78,2c-0.48,0.532-0.78,1.229-0.78,2c0,1.654,1.346,3,3,3h1V59z M28,45    c0,0.552-0.449,1-1,1h-4c-0.551,0-1-0.448-1-1s0.449-1,1-1h4C27.551,44,28,44.448,28,45z M28,49c0,0.552-0.449,1-1,1h-4    c-0.551,0-1-0.448-1-1s0.449-1,1-1h4C27.551,48,28,48.448,28,49z M27,54h-4c-0.551,0-1-0.448-1-1s0.449-1,1-1h4    c0.551,0,1,0.448,1,1S27.551,54,27,54z M28,41c0,0.552-0.449,1-1,1h-4c-0.551,0-1-0.448-1-1s0.449-1,1-1h4    C27.551,40,28,40.448,28,41z M25,36c0,1.103-0.897,2-2,2h-6.535l-0.297,0.445C15.102,40.045,13.317,41,11.395,41H10v2h1.395    c1.688,0,3.291-0.556,4.605-1.533V54h-1.784c-1.268,0-2.513-0.345-3.601-0.997L8,51.434V38.566l2.614-1.569    C11.703,36.345,12.948,36,14.216,36H25z M21,34c-7.168,0-13-5.832-13-13S13.832,8,21,8s13,5.832,13,13S28.168,34,21,34z M38,54    c0,1.103-0.897,2-2,2s-2-0.897-2-2V28.452c1.265-2.198,2-4.738,2-7.452s-0.735-5.253-2-7.452V2h20v48H38V54z M60,54    c0,1.103-0.897,2-2,2H39.463C39.805,55.411,40,54.728,40,54v-2h20V54z"/><rect height="18" width="2" x="36" y="30"/><rect height="2" width="2" x="40" y="46"/><rect height="14" width="2" x="40" y="30"/><rect height="14" width="2" x="44" y="30"/><rect height="18" width="2" x="48" y="30"/><rect height="2" width="2" x="44" y="46"/><path d="M36,4v8h16V4H36z M50,10H38V6h12V10z"/><rect height="2" width="2" x="38" y="14"/><rect height="2" width="10" x="42" y="14"/><rect height="2" width="14" x="38" y="18"/><rect height="2" width="14" x="38" y="22"/><rect height="2" width="14" x="38" y="26"/></g></g></svg>