<?xml version="1.0" encoding="utf-8"?>
<!-- Generator: Adobe Illustrator 17.1.0, SVG Export Plug-In . SVG Version: 6.00 Build 0)  -->
<!DOCTYPE svg PUBLIC "-//W3C//DTD SVG 1.1//EN" "http://www.w3.org/Graphics/SVG/1.1/DTD/svg11.dtd">
<svg version="1.1" id="quality-award" xmlns="http://www.w3.org/2000/svg" xmlns:xlink="http://www.w3.org/1999/xlink" x="0px"
	 y="0px" viewBox="0 0 1010 1010" enable-background="new 0 0 1010 1010" xml:space="preserve">
<g id="quality-award-quality-award">
	<path id="quality-award-label" fill="#FC6E51" d="M1010,505c0,278.9043-226.1055,505-505,505C226.0859,1010,0,783.9043,0,505
		S226.0859,0,505,0C783.8945,0,1010,226.0957,1010,505z"/>
	<g id="quality-award-quality-award_1_">
		<g>
			<g>
				<g>
					<polyline fill="#3BAFDA" points="655.0801,655.0205 685.2021,726.0059 609.8965,723.3535 559.4946,779.3574 524.125,696.042 
											"/>
					<polygon fill="#454545" points="556.3975,797.9004 514.8242,699.9873 533.4258,692.0967 562.5918,760.8145 605.5469,713.0957 
						669.707,715.3535 645.7793,658.9658 664.3809,651.0752 700.6973,736.6582 614.2461,733.6113 556.3975,797.9004 					"/>
				</g>
			</g>
			<g>
				<g>
					<polyline fill="#3BAFDA" points="486.2896,693.0625 451.4229,779.3574 400.0547,724.251 324.8076,728.2158 357.8696,646.3506 
											"/>
					<polygon fill="#454545" points="454.8452,797.8408 395.8828,734.5781 309.5098,739.1348 348.5093,642.5732 367.2295,650.1279 
						340.1055,717.2969 404.2271,713.9238 448,760.873 476.9292,689.2852 495.6494,696.8408 454.8452,797.8408 					"/>
				</g>
			</g>
		</g>
		<g>
			<path fill="#FFB933" d="M747.8145,465.0039c0,12.3691-22.4493,22.8047-24.3233,34.6309
				c-1.9033,12.1406,16.2061,28.9882,12.4873,40.4297c-3.7773,11.6484-28.3672,14.6269-33.8506,25.3779
				c-5.5439,10.8691,6.4307,32.5185-0.6904,42.3037c-7.1611,9.8437-31.4639,5.0986-40.0352,13.6699
				c-8.5908,8.5713-3.8564,32.875-13.6806,40.0449c-9.794,7.1115-31.4346-4.8818-42.3036,0.6612
				c-10.7412,5.5039-13.7296,30.0732-25.3781,33.8604c-11.4218,3.709-28.2685-14.4005-40.4101-12.4863
				c-11.8457,1.8633-22.2813,24.3223-34.6299,24.3223c-12.3584,0-22.8037-22.459-34.6201-24.3223
				c-12.1416-1.9141-28.9981,16.1953-40.4297,12.4863c-11.6387-3.7871-14.6172-28.3564-25.3486-33.8604
				c-10.8789-5.543-32.5288,6.4404-42.3135-0.6709c-9.8335-7.17-5.0991-31.4737-13.6802-40.045
				c-8.581-8.581-32.8745-3.8271-40.0449-13.6699c-7.1314-9.7851,4.8628-31.4345-0.6704-42.3047
				c-5.5039-10.7402-30.0933-13.7285-33.8609-25.3671c-3.7285-11.4415,14.3804-28.2891,12.4869-40.4297
				c-1.8741-11.8262-24.3228-22.2813-24.3228-34.6309c0-12.3389,22.4487-22.7939,24.3228-34.6196
				c1.8935-12.1319-16.2251-28.9785-12.4869-40.4097c3.7579-11.6387,28.3374-14.6377,33.8409-25.3887
				c5.5332-10.8593-6.4507-32.5088,0.6704-42.2934c7.1709-9.8335,31.4741-5.0894,40.0551-13.69
				c8.5811-8.5713,3.8365-32.8745,13.6802-40.0351c9.7842-7.1216,31.4346,4.8623,42.3037-0.6807
				c10.7315-5.4941,13.7198-30.0732,25.3584-33.8506c11.4414-3.7187,28.2784,14.3902,40.4395,12.4864
				c11.8164-1.8741,22.2617-24.3223,34.6201-24.3223c12.3589,0,22.8037,22.4482,34.6299,24.3223
				c12.1416,1.9038,28.9883-16.2051,40.4297-12.4766c11.6484,3.7773,14.6279,28.3467,25.3585,33.8408
				c10.8885,5.5528,32.5292-6.4409,42.3134,0.6904c9.834,7.1607,5.0997,31.4541,13.6807,40.0352
				c8.5811,8.5908,32.8838,3.8467,40.0254,13.6802c7.1406,9.7846-4.8437,31.4341,0.7002,42.3037
				c5.4932,10.7407,30.0635,13.7295,33.8408,25.3682c3.7188,11.4414-14.3906,28.288-12.4873,40.4199
				C725.3652,442.21,747.8145,452.665,747.8145,465.0039z"/>
			<path fill="#454545" d="M505,717.918c-10.8003,0-18.7104-8.2256-25.6836-15.4844c-3.0874-3.2158-8.2656-8.6113-10.5146-8.9658
				c-0.0098,0-0.0196,0-0.0293,0c-3.1861,0-8.7784,2.998-13.2764,5.4052c-7.0815,3.7872-14.4102,7.7129-22.2119,7.7129
				c-2.2393,0-4.419-0.3359-6.4507-0.9961c-10.2085-3.3242-15.1499-13.5429-19.5093-22.5673
				c-1.9629-4.0538-5.2373-10.8399-7.3286-11.9151c-0.1186-0.0488-0.8975-0.4043-3.0278-0.4043
				c-3.0972,0-7.0127,0.7002-11.1553,1.4395c-4.8037,0.8486-9.7847,1.7363-14.6274,1.7363c-6.0367,0-10.8892-1.3906-14.8345-4.2607
				c-8.6206-6.2735-10.1592-17.4776-11.5303-27.3604c-0.6113-4.498-1.6572-12.0137-3.3535-13.7109
				c-1.6963-1.6963-9.2119-2.7314-13.7002-3.3535c-9.8828-1.3604-21.0874-2.8995-27.3701-11.5098
				c-6.2539-8.5811-4.271-19.6973-2.5254-29.501c0.8486-4.7744,2.1309-11.9844,1.0161-14.164
				c-1.0552-2.0713-7.8511-5.3653-11.9048-7.3184c-9.0254-4.3701-19.2534-9.3213-22.5576-19.5293
				c-3.2744-10.0215,2.0317-19.9434,6.7168-28.6826c2.3081-4.3008,5.79-10.8106,5.3955-13.2959
				c-0.3555-2.2285-5.7407-7.417-8.9658-10.5137c-7.2598-6.9736-15.4756-14.874-15.4756-25.6748
				c0-10.79,8.2158-18.6904,15.4756-25.6543c3.2153-3.1064,8.6103-8.2851,8.9756-10.5537c0.375-2.4458-3.0972-8.9458-5.4053-13.2461
				c-4.6851-8.749-9.9912-18.6709-6.707-28.7119c3.2846-10.1787,13.5029-15.1304,22.5278-19.4902
				c4.0537-1.9727,10.8398-5.2666,11.9146-7.3575c1.1049-2.1699-0.1773-9.3901-1.0254-14.164
				c-1.7461-9.794-3.7188-20.9004,2.5249-29.4717c6.2729-8.6201,17.4677-10.1592,27.351-11.52
				c4.7832-0.6607,12.0235-1.6568,13.7198-3.3736c1.706-1.6963,2.7422-9.2119,3.3632-13.6997
				c1.3614-9.893,2.9097-21.0976,11.5303-27.3608c3.9356-2.8701,8.7979-4.2705,14.8443-4.2705
				c4.8427,0,9.8139,0.8877,14.6274,1.7353c4.1426,0.7403,8.0479,1.4405,11.1455,1.4405c2.1201,0,2.8994-0.3453,3.0376-0.4141
				c2.0713-1.0654,5.356-7.8516,7.3189-11.9053c4.3593-9.0249,9.3105-19.2431,19.5092-22.5576
				c2.0318-0.6606,4.2115-0.9961,6.4605-0.9961c7.8017,0,15.1304,3.916,22.2119,7.7134c4.5176,2.4165,10.1299,5.4145,13.0195,5.4145
				c2.5254-0.3745,7.7032-5.7597,10.8008-8.9755c6.9732-7.2588,14.8735-15.4854,25.6836-15.4854
				c10.8003,0,18.7109,8.2266,25.6841,15.4756c3.0874,3.2256,8.2754,8.6108,10.5239,8.9658
				c2.8901,0.3452,8.7783-2.9785,13.2764-5.3852c7.0918-3.7974,14.4199-7.7134,22.2217-7.7134c2.2587,0,4.4384,0.3359,6.4803,1.0063
				c10.1983,3.2945,15.1397,13.5327,19.5089,22.5474c1.9629,4.0537,5.2383,10.8301,7.3291,11.8955
				c0.1182,0.0688,0.9072,0.4141,3.0381,0.4141c3.0967,0,7.0029-0.6905,11.1455-1.4302c4.8037-0.8579,9.7647-1.7359,14.6074-1.7359
				c6.0557,0,10.919,1.4004,14.8643,4.2706c8.6103,6.2734,10.1484,17.4677,11.5195,27.351
				c0.6612,4.7837,1.6572,12.0034,3.3535,13.71c1.7071,1.7065,9.2227,2.7417,13.7207,3.3633
				c9.8829,1.3608,21.0772,2.8999,27.3399,11.52c6.2441,8.5615,4.2715,19.6777,2.5351,29.4814
				c-0.8476,4.774-2.1298,11.9844-1.0156,14.1739c1.0654,2.081,7.8516,5.3652,11.9053,7.3281
				c9.0146,4.3696,19.2334,9.311,22.5469,19.5098c3.2646,10.0312-2.042,19.9433-6.7169,28.6923
				c-2.3077,4.3003-5.7901,10.8003-5.3954,13.2759c0.3553,2.2486,5.7509,7.4273,8.9668,10.5337
				c7.2587,6.9639,15.4745,14.8643,15.4745,25.6543c0,10.8106-8.2256,18.7109-15.4854,25.6943
				c-3.2148,3.087-8.6006,8.2657-8.9658,10.5147c-0.3848,2.4648,3.0976,8.9746,5.4053,13.2851
				c4.6749,8.7393,9.9814,18.6514,6.7169,28.6924c-3.3037,10.1983-13.5323,15.1396-22.5469,19.5098
				c-4.0537,1.9531-10.8496,5.2373-11.9151,7.3379c-1.1152,2.1806,0.168,9.3994,1.0157,14.1836
				c1.7363,9.7842,3.709,20.8906-2.5352,29.4717c-6.2724,8.6201-17.4775,10.1591-27.3701,11.5205
				c-4.4873,0.6113-11.9932,1.6572-13.6904,3.3427c-1.7061,1.7072-2.7422,9.2325-3.3633,13.7207
				c-1.3711,9.8829-2.9102,21.0674-11.5,27.3409c-3.9658,2.8798-8.8184,4.2704-14.8545,4.2704
				c-4.8428,0-9.8242-0.8877-14.6377-1.7461c-4.1426-0.7393-8.0576-1.4395-11.1445-1.4395c-2.1212,0-2.9005,0.3457-3.0381,0.4141
				c-2.0811,1.0654-5.3662,7.8515-7.3291,11.915c-4.3594,9.0146-9.3106,19.2334-19.5098,22.5576
				c-2.041,0.6602-4.2109,0.9961-6.4599,0.9961c-7.7921,0-15.1202-3.9257-22.2022-7.7129c-4.5078-2.4169-10.1196-5.4257-13-5.4257
				c-2.5644,0.375-7.7524,5.7802-10.8496,9.0058C523.6909,709.7021,515.7905,717.918,505,717.918L505,717.918z M468.5059,673.248
				c1.1738,0,2.3178,0.0987,3.4423,0.2754c8.9659,1.4014,15.5547,8.2755,21.9361,14.9141
				c2.8999,3.0176,8.9165,9.2812,11.1157,9.2812c2.1895,0,8.1963-6.2539,11.0864-9.2617
				c6.3911-6.6484,12.9995-13.5322,21.9751-14.9336c8.7296-1.3906,17.7539,3.1368,25.9805,7.5362
				c4.4282,2.377,9.9419,5.3261,12.6641,5.3261c2.2587-0.7295,5.9969-8.4433,7.7919-12.1513
				c4.0245-8.3252,8.1963-16.9453,16.3145-21.1074c7.0225-3.5801,17.3789-2.5645,26.916-0.8682
				c4.1328,0.7295,8.0391,1.4307,11.0967,1.4307c2.2978,0,2.9687-0.4053,2.9687-0.4053c1.6573-1.3506,2.7715-9.4286,3.3731-13.7686
				c1.2139-8.789,2.585-18.75,9.1045-25.25c6.4795-6.4902,16.4316-7.8515,25.2099-9.0644
				c4.3399-0.6016,12.418-1.7072,13.7891-3.4033c1.1436-1.834-0.2666-9.7842-1.0264-14.0547
				c-1.5478-8.7491-3.3037-18.6709,0.8887-26.8877c4.1524-8.1368,12.7725-12.3194,21.1074-16.3438
				c3.6983-1.7949,11.4014-5.5234,12.1309-7.5644c0.4736-2.1016-3.294-9.1436-5.3164-12.9209
				c-4.2109-7.8615-8.9746-16.7774-7.5449-25.9502c1.4199-8.9756,8.2851-15.5742,14.9238-21.9561
				c3.0176-2.8896,9.2812-8.916,9.2812-11.1162c0-2.1894-6.2636-8.206-9.2714-11.0957
				c-6.6387-6.3916-13.5038-12.9805-14.9239-21.9355c-1.4492-9.1934,3.3243-18.1094,7.5352-25.9707
				c2.0224-3.7774,5.79-10.8199,5.3164-12.9307c-0.7295-2.0317-8.4326-5.7598-12.1309-7.5552
				c-8.3252-4.0239-16.9355-8.1963-21.0976-16.314c-4.1924-8.2358-2.4365-18.1484-0.8887-26.8969
				c0.7598-4.271,2.1699-12.2207,1.0166-14.0747c-1.3809-1.6768-9.4297-2.7915-13.7588-3.3936
				c-8.789-1.2031-18.7402-2.584-25.2402-9.0937c-6.5-6.4903-7.8711-16.4419-9.084-25.2203
				c-0.6025-4.3398-1.7168-12.4179-3.4033-13.7788l0,0c0,0-0.6807-0.4047-2.9688-0.4047c-3.0576,0-6.9541,0.6904-11.0771,1.4301
				c-9.5469,1.6963-19.9141,2.6826-26.9063-0.8877c-8.1377-4.1621-12.2998-12.7627-16.3242-21.0879
				c-1.7949-3.708-5.5234-11.4213-7.5649-12.1416c-0.0098,0-0.0098,0-0.02,0c-2.9786,0-8.4825,2.9493-12.9107,5.3164
				c-8.2065,4.3892-17.1724,8.9166-25.9507,7.5357c-8.9653-1.4204-15.5638-8.2852-21.9453-14.9331
				c-2.8901-3.0083-8.9165-9.2715-11.1162-9.2715c-2.1992,0-8.2256,6.2734-11.1157,9.2715
				c-6.3814,6.6479-12.9702,13.5127-21.9263,14.9331c-8.8672,1.4204-17.7637-3.1362-25.9897-7.5552
				c-4.4283-2.3672-9.9517-5.3164-12.6841-5.3164c-2.2686,0.7398-5.9971,8.4531-7.792,12.1514
				c-4.0244,8.3247-8.1865,16.9355-16.3037,21.0976c-7.023,3.5703-17.3794,2.584-26.917,0.878
				c-4.1231-0.7398-8.0191-1.4302-11.0864-1.4302c-2.2984,0-2.9693,0.4043-2.9693,0.4145
				c-1.6865,1.3609-2.8008,9.4288-3.3926,13.7686c-1.2133,8.7886-2.5839,18.7402-9.0839,25.2305
				c-6.4903,6.5097-16.462,7.8906-25.25,9.0937c-4.3399,0.6118-12.418,1.7168-13.7891,3.4131
				c-1.1343,1.8247,0.2764,9.7744,1.0356,14.0449c1.5581,8.749,3.3238,18.6616-0.8676,26.878
				c-4.1626,8.1367-12.7735,12.3193-21.1075,16.3432c-3.6894,1.7954-11.3828,5.5235-12.122,7.565
				c-0.4737,2.1308,3.2939,9.163,5.3164,12.9306c4.2012,7.8613,8.9756,16.7676,7.5449,25.9307
				c-1.4297,8.9853-8.2949,15.5742-14.9326,21.9658c-3.0088,2.8897-9.2715,8.9063-9.2715,11.0957
				c0,2.2002,6.2627,8.2168,9.2715,11.1162c6.6377,6.3721,13.5127,12.9805,14.9228,21.9365
				c1.4405,9.1924-3.3339,18.0987-7.5351,25.96c-2.0225,3.7871-5.7901,10.8193-5.3164,12.9404
				c0.7392,2.0313,8.4326,5.7598,12.1416,7.5547c8.3242,4.0244,16.935,8.1875,21.0976,16.3145
				c4.2017,8.2461,2.4361,18.1484,0.878,26.9072c-0.7598,4.2607-2.1802,12.21-1.0264,14.0645
				c1.3613,1.6767,9.4394,2.7919,13.7891,3.3935c8.7783,1.2031,18.7304,2.5742,25.2304,9.0742
				c6.5,6.4903,7.8711,16.4512,9.084,25.2305c0.6016,4.3398,1.7163,12.4277,3.4126,13.7988l0,0c0,0,0.6904,0.3838,2.9395,0.3838
				c3.0673,0,6.9633-0.6904,11.0962-1.4297c9.5375-1.6865,19.9238-2.6924,26.9072,0.878
				c8.1367,4.1718,12.2993,12.7822,16.3232,21.1074c1.7954,3.708,5.5235,11.4218,7.5654,12.1513h0.0098
				c2.9395,0,8.4531-2.9589,12.8814-5.3261C453.1387,677.2227,460.5562,673.248,468.5059,673.248L468.5059,673.248z"/>
		</g>
		<circle fill="#FFFFFF" cx="505" cy="465.0039" r="151.5"/>
		<g>
			<g>
				<path fill="#454545" d="M505,566.7832c-51.417,0-93.2471-45.0752-93.2471-100.4766c0-55.4023,41.8301-100.4775,93.2471-100.4775
					c51.4272,0,93.2578,45.0752,93.2578,100.4775C598.2578,521.708,556.4272,566.7832,505,566.7832L505,566.7832z M505,386.0293
					c-40.2812,0-73.0474,36.0107-73.0474,80.2773c0,44.2657,32.7662,80.2774,73.0474,80.2774
					c40.2817,0,73.0576-36.0117,73.0576-80.2774C578.0576,422.04,545.2817,386.0293,505,386.0293L505,386.0293z"/>
			</g>
			<g>
				<path fill="#454545" d="M577.1201,567.8291c-2.584,0-5.168-0.9863-7.1406-2.959l-52.8379-52.8281
					c-3.9453-3.9453-3.9453-10.3369,0-14.2822c3.9453-3.9453,10.3369-3.9453,14.2822,0l52.838,52.8281
					c3.9453,3.9453,3.9453,10.3369,0,14.2822C582.2891,566.8428,579.7046,567.8291,577.1201,567.8291L577.1201,567.8291z"/>
			</g>
		</g>
	</g>
</g>
</svg>
