<?xml version="1.0" ?><svg id="Layer_1" style="enable-background:new 0 0 2048 2048;" version="1.1" viewBox="0 0 2048 2048" xml:space="preserve" xmlns="http://www.w3.org/2000/svg" xmlns:xlink="http://www.w3.org/1999/xlink"><style type="text/css">
	.st0{fill:#EBB39E;}
	.st1{fill:#F7E07F;}
	.st2{fill:#EBCD6D;}
	.st3{fill:#F4BAA6;}
	.st4{fill:#784132;}
	.st5{fill:#33444D;}
	.st6{fill:#465A65;}
	.st7{fill:#CFD8DD;}
	.st8{fill:#72B8CE;}
	.st9{fill:#FFA96B;}
</style><g><g><g><g><path class="st0" d="M793.38,991.01c-2.1,7.56-4.03,13.04-3.73,24.52c0.63,23.69,9.48,45.13,17.99,60.32l137.88,137.88H500.07      l123.31-138.34c3.18-3.57,5.79-7.6,7.69-11.99c5.78-13.35,10.85-30.33,11.31-47.87c0.34-12.97-2.18-18.3-4.57-27.61      L793.38,991.01z"/></g></g><path class="st1" d="M1086.87,1477.4h-744.7c-0.09-29.84,0.17-204.55,27.74-293.42c6.78-21.82,14.61-38.41,24.66-53.59    c5.64-8.53,30.34-44.39,78.6-68.92c44.84-22.8,86.39-23.81,106.34-22.98l41.89,37.35l93.12,83.03l93.12-83.03l41.89-37.35    c19.95-0.83,61.5,0.18,106.34,22.98c48.26,24.53,72.96,60.39,78.6,68.92c10.05,15.18,17.88,31.77,24.66,53.59    C1086.7,1272.85,1086.96,1447.56,1086.87,1477.4z"/><g><g><g><path class="st2" d="M508.47,1273.83v203.57h-52.31v-202.98c0-14.67,12-27.02,26.67-26.73       C497.04,1247.96,508.47,1259.56,508.47,1273.83z"/></g></g><g><g><path class="st2" d="M972.88,1274.42v202.98h-52.31v-203.57c0-14.27,11.43-25.87,25.64-26.15       C960.88,1247.4,972.88,1259.75,972.88,1274.42z"/></g></g></g><path class="st3" d="M882.35,782.07c52.4,16.85,25.34,104.74-15.07,111.54c-4.47,21-14.69,56.49-39.64,86.02    c-13.97,16.53-27.45,26.01-30.82,28.33c-7.45,5.13-23.38,15.86-47.01,21.44c-6.27,1.48-30.47,6.71-60.88,0    c-5.9-1.3-33.85-7.86-61.65-30.63c-7.1-5.81-33.53-28.52-47.78-68.15c-4.61-12.83-7.41-28.13-8.48-35.99    c-41.33-12-68.22-73.24-23.1-112.63l10.43-109.7l163.34-40.32c0,0,90.56,22.88,92.19,25.06    C815.53,659.22,882.35,782.07,882.35,782.07z"/><path class="st4" d="M758.92,690.09c-3.48,5.73-9.48,13.8-19.26,19.91c-8.35,5.21-16.8,7.33-24.99,8.13    c-8.63,0.84-17.32,0.05-25.79-1.78c-8.26-1.79-25-3.77-55.57-1.66c-17.76,1.23-36.73,2.19-52.77,10.74    c-20.45,10.9-27.71,33.53-31.61,54.84c-0.16,0.86-0.66,1.97-1.51,1.79c-0.36-0.08-0.62-0.39-0.85-0.68    c-6.2-8.24-7.6-21.58-8.68-31.47c-3.46-31.5-3.11-56.46-0.13-63.55c1.8-4.28,10.9-25.2,32.36-45.94    c34.7-33.53,91.85-51.1,120.93-57.13c23.55-4.89,48.44-7.37,72.76-5.68c13.56,0.94,27.76,2.67,40.95,6.01    c10.83,2.74,21.57,7.93,28.08,17.02c7.01,9.79,8.71,22.16,17.1,31.12c9.16,9.79,21.65,15.63,31.03,25.18    c12.53,12.78,25.01,32.9,26.82,50.93c1.63,16.25-5.49,31.58-13.7,45.12c-1.51,2.5-10.26,30.63-11.73,29.07    c-3.39-3.58-46.25-15.1-80.28-56.76c-8.06-9.86-11.61-14.14-14.64-17.1c-2.02-1.98-8.26-7.89-17.47-14.29    C766.99,691.84,760.63,687.19,758.92,690.09"/></g><g><path class="st5" d="M1567.44,970.81h-565.5c-22.09,0-40,17.91-40,40v431h645.5v-431    C1607.44,988.72,1589.53,970.81,1567.44,970.81z"/><path class="st6" d="M1567.07,1473.55h-564.76c-50.67,0-91.74-41.07-91.74-91.74v0l0,0h748.25v0    C1658.81,1432.48,1617.74,1473.55,1567.07,1473.55z"/><circle class="st7" cx="1284.69" cy="1206.31" r="39.32"/></g><g><g><g><path class="st8" d="M1177.04,844.89c-5.08,0-10.2-1.61-14.55-4.93L1035,742.59c-5.95-4.54-9.43-11.59-9.43-19.07      c0-7.48,3.49-14.53,9.43-19.07l127.48-97.37c10.53-8.05,25.59-6.03,33.64,4.51c8.04,10.53,6.03,25.6-4.51,33.64l-102.51,78.3      l102.08,77.96c10.54,8.05,12.97,23.55,4.88,34.05C1191.34,841.67,1184.23,844.89,1177.04,844.89z"/></g><g><path class="st8" d="M1392.34,844.89c-7.22,0-14.37-3.25-19.09-9.43c-8.04-10.53-6.03-25.6,4.51-33.64l102.51-78.3l-102.51-78.3      c-10.53-8.05-12.55-23.11-4.51-33.64c8.05-10.53,23.11-12.55,33.64-4.51l127.48,97.37c5.95,4.54,9.43,11.59,9.43,19.07      c0,7.48-3.49,14.53-9.43,19.07l-127.48,97.37C1402.54,843.28,1397.42,844.89,1392.34,844.89z"/></g></g><g><path class="st8" d="M1243.04,896.59c-2.14,0-4.31-0.29-6.47-0.89c-12.77-3.57-20.22-16.81-16.65-29.57L1303.23,568     c3.57-12.77,16.8-20.22,29.57-16.65c12.77,3.57,20.22,16.81,16.65,29.57l-83.32,298.13     C1263.18,889.65,1253.54,896.59,1243.04,896.59z"/></g></g><g><path class="st9" d="M1768,1497.55H280.54c-13.46,0-24.79-11.01-24.54-24.46c0.25-13.04,10.9-23.54,24-23.54h1487.46    c13.46,0,24.79,11.01,24.54,24.46C1791.75,1487.06,1781.1,1497.55,1768,1497.55z"/></g></g></svg>